<?xml version="1.0" standalone="no"?>
<!DOCTYPE svg PUBLIC "-//W3C//DTD SVG 20010904//EN"
 "http://www.w3.org/TR/2001/REC-SVG-20010904/DTD/svg10.dtd">
<svg version="1.0" xmlns="http://www.w3.org/2000/svg"
 width="700.000000pt" height="700.000000pt" viewBox="0 0 700.000000 700.000000"
 preserveAspectRatio="xMidYMid meet">
<metadata>
Created by potrace 1.11, written by Peter Selinger 2001-2013
</metadata>
<g transform="translate(0.000000,700.000000) scale(0.100000,-0.100000)"
fill="#000000" stroke="none">
<path d="M3278 6996 c-1 -2 -41 -6 -88 -10 -47 -4 -98 -9 -115 -11 -16 -2 -48
-6 -70 -9 -234 -32 -499 -100 -734 -187 -149 -56 -400 -174 -506 -238 -37 -23
-69 -41 -72 -41 -4 0 -128 -82 -239 -159 -223 -154 -541 -461 -724 -701 -19
-25 -38 -49 -43 -55 -113 -142 -305 -471 -392 -675 -124 -287 -224 -635 -260
-905 -4 -27 -9 -61 -11 -75 -19 -123 -26 -590 -11 -740 36 -339 103 -630 214
-920 47 -125 53 -138 121 -280 329 -694 920 -1286 1620 -1626 358 -174 695
-273 1122 -330 159 -21 585 -27 725 -9 73 9 267 35 290 40 537 96 1045 318
1481 646 77 58 158 121 179 140 238 212 426 417 571 624 27 39 52 75 57 80 4
6 39 60 76 120 174 281 316 612 402 933 30 113 35 131 44 187 3 17 8 37 10 45
2 8 7 35 10 60 4 24 8 47 10 50 2 3 6 34 10 69 4 34 8 72 10 84 25 129 26 683
1 814 -2 10 -7 41 -10 68 -29 212 -120 582 -175 710 -5 11 -26 63 -46 115 -48
121 -124 280 -188 395 -45 81 -199 323 -232 363 -7 10 -49 62 -93 117 -494
619 -1192 1058 -1957 1229 -134 30 -183 38 -435 72 -47 6 -546 15 -552 10z
m-3 -766 l0 -320 219 2 219 3 1 315 1 315 50 -1 c62 -1 167 -12 220 -24 22 -5
59 -11 82 -15 67 -9 270 -61 368 -93 262 -86 509 -205 729 -351 122 -81 134
-89 176 -123 l33 -26 -241 -242 c-133 -133 -242 -244 -242 -248 0 -3 68 -74
151 -157 l151 -152 253 253 253 254 58 -63 c230 -248 447 -597 578 -929 76
-195 147 -449 171 -618 4 -25 7 -49 8 -55 1 -7 -143 -10 -416 -10 l-417 0 -1
-40 c0 -43 0 -321 1 -370 l0 -30 436 1 437 0 -6 -150 c-4 -83 -9 -161 -11
-173 -3 -12 -7 -48 -11 -80 -10 -93 -53 -298 -91 -433 -114 -402 -311 -774
-582 -1104 -99 -121 -292 -313 -419 -418 -150 -123 -135 -120 -240 -61 -229
129 -626 287 -788 314 -5 1 -21 6 -35 11 -32 12 -178 42 -305 62 -55 9 -112
18 -128 21 -123 20 -616 28 -767 12 -41 -5 -93 -10 -115 -12 -22 -3 -51 -7
-65 -9 -14 -3 -45 -8 -70 -11 -342 -47 -808 -208 -1132 -391 -43 -24 -82 -44
-87 -44 -27 0 -299 235 -420 364 -25 27 -55 58 -66 70 -11 12 -40 46 -65 76
-25 30 -47 57 -50 60 -3 3 -30 39 -61 80 -300 406 -491 863 -568 1361 -21 135
-35 326 -32 429 l1 26 423 -1 c232 -1 428 1 435 3 9 3 12 56 12 218 0 164 -3
214 -12 215 -7 0 -196 1 -419 1 l-407 1 5 31 c2 17 10 63 18 101 8 39 16 81
18 95 20 107 94 344 154 490 136 330 362 686 575 906 l50 52 252 -253 252
-252 153 154 c85 84 152 156 150 158 -2 3 -112 113 -244 246 l-240 241 30 24
c47 38 274 189 335 222 269 146 465 227 720 296 178 48 385 84 535 94 l40 3 0
-321z m520 -5154 c51 -6 180 -25 290 -43 106 -17 403 -98 420 -114 5 -5 16 -9
25 -9 15 0 100 -34 278 -110 l53 -23 -48 -25 c-247 -125 -644 -245 -921 -278
-26 -3 -81 -9 -122 -14 -77 -9 -537 -6 -600 4 -19 3 -55 8 -79 11 -293 38
-670 152 -915 277 l-49 25 39 16 c22 9 80 34 129 55 209 92 508 174 750 208
17 2 44 6 60 9 17 3 68 8 115 11 47 4 86 8 88 9 6 6 428 -3 487 -9z"/>
<path d="M3417 5224 c-51 -18 -94 -50 -111 -82 -7 -15 -32 -83 -54 -152 -76
-235 -124 -385 -132 -415 -7 -27 -143 -480 -190 -635 -85 -277 -230 -835 -276
-1060 -52 -251 -34 -452 57 -633 92 -183 267 -347 449 -421 25 -10 52 -22 61
-26 42 -21 223 -42 317 -36 122 7 137 9 218 36 312 100 545 367 600 685 10 57
10 210 1 275 -27 182 -127 585 -252 1020 -203 704 -397 1322 -432 1372 -47 68
-168 103 -256 72z m103 -1006 c12 -40 35 -118 52 -173 65 -216 80 -267 137
-470 102 -365 184 -685 197 -774 3 -20 9 -50 14 -68 12 -47 10 -168 -5 -217
-20 -65 -59 -137 -98 -177 -189 -198 -502 -187 -662 23 -132 173 -126 288 49
938 92 341 282 990 291 990 2 0 13 -33 25 -72z"/>
</g>
</svg>
